<svg version="1.1" xmlns="http://www.w3.org/2000/svg" viewBox="0 0 2049.3333435058594 2933.333333333332" width="2049.3333435058594" height="2933.333333333332">
  <!-- svg-source:excalidraw -->
  
  <defs>
    <style class="style-fonts">
      @font-face {
        font-family: "Virgil";
        src: url("https://excalidraw.com/Virgil.woff2");
      }
      @font-face {
        font-family: "Cascadia";
        src: url("https://excalidraw.com/Cascadia.woff2");
      }
      @font-face {
        font-family: "Assistant";
        src: url("https://excalidraw.com/Assistant-Regular.woff2");
      }
    </style>
    
  </defs>
  <rect x="0" y="0" width="2049.3333435058594" height="2933.333333333332" fill="#f5faff"></rect><g stroke-opacity="0.8" fill-opacity="0.8" transform="translate(326.0000610351562 29.333292643228106) rotate(0 477.32385253906244 45)"><text x="0" y="0" font-family="Virgil, Segoe UI Emoji" font-size="36px" fill="#1e1e1e" text-anchor="start" style="white-space: pre;" direction="ltr" dominant-baseline="text-before-edge">So we have text files in some programming language  </text><text x="0" y="45" font-family="Virgil, Segoe UI Emoji" font-size="36px" fill="#1e1e1e" text-anchor="start" style="white-space: pre;" direction="ltr" dominant-baseline="text-before-edge"></text></g><g stroke-linecap="round"><g stroke-opacity="0.8" fill-opacity="0.8" transform="translate(798.0000305175779 125.99995930989485) rotate(0 -1.999969482421875 76.000010172526)"><path d="M-0.64 0.62 C-1.51 26.17, -4.67 127.24, -5.2 152.41 M1.23 -0.11 C0.69 25.16, -2.17 125.03, -3.11 150.5" stroke="#1e1e1e" stroke-width="1" fill="none"></path></g><g stroke-opacity="0.8" fill-opacity="0.8" transform="translate(798.0000305175779 125.99995930989485) rotate(0 -1.999969482421875 76.000010172526)"><path d="M-10.91 126.74 C-7.68 132.05, -5.65 141.69, -3.11 150.5 M-10.91 126.74 C-7.97 132.94, -6.11 138.67, -3.11 150.5" stroke="#1e1e1e" stroke-width="1" fill="none"></path></g><g stroke-opacity="0.8" fill-opacity="0.8" transform="translate(798.0000305175779 125.99995930989485) rotate(0 -1.999969482421875 76.000010172526)"><path d="M6.19 127.29 C4.19 132.34, 1 141.81, -3.11 150.5 M6.19 127.29 C4.56 133.49, 1.87 139.08, -3.11 150.5" stroke="#1e1e1e" stroke-width="1" fill="none"></path></g></g><mask></mask><g stroke-opacity="0.8" fill-opacity="0.8" transform="translate(527.3334248860676 320.6666564941395) rotate(0 709.36181640625 112.5)"><text x="0" y="0" font-family="Virgil, Segoe UI Emoji" font-size="36px" fill="#1e1e1e" text-anchor="start" style="white-space: pre;" direction="ltr" dominant-baseline="text-before-edge">We want to do something useful with that text file </text><text x="0" y="45" font-family="Virgil, Segoe UI Emoji" font-size="36px" fill="#1e1e1e" text-anchor="start" style="white-space: pre;" direction="ltr" dominant-baseline="text-before-edge">So we have to "parse" the text of that textfile into some sort of structures</text><text x="0" y="90" font-family="Virgil, Segoe UI Emoji" font-size="36px" fill="#1e1e1e" text-anchor="start" style="white-space: pre;" direction="ltr" dominant-baseline="text-before-edge">This is known as parsing. The jargon for this process is known as a parsor</text><text x="0" y="135" font-family="Virgil, Segoe UI Emoji" font-size="36px" fill="#1e1e1e" text-anchor="start" style="white-space: pre;" direction="ltr" dominant-baseline="text-before-edge"> </text><text x="0" y="180" font-family="Virgil, Segoe UI Emoji" font-size="36px" fill="#1e1e1e" text-anchor="start" style="white-space: pre;" direction="ltr" dominant-baseline="text-before-edge"></text></g><g stroke-opacity="0.8" fill-opacity="0.8" stroke-linecap="round" transform="translate(288.6666870117187 10) rotate(0 495.33332824707026 43.999989827473996)"><path d="M22 0 C338.08 1.32, 654.98 0.6, 968.67 0 M22 0 C346.36 0.36, 670.14 0.36, 968.67 0 M968.67 0 C981.89 -0.23, 989.29 5.92, 990.67 22 M968.67 0 C982.89 1.5, 991.54 6.94, 990.67 22 M990.67 22 C993.04 37.51, 992.79 48.17, 990.67 66 M990.67 22 C990.36 32.25, 991.19 44.43, 990.67 66 M990.67 66 C989.12 79.44, 982.12 86.88, 968.67 88 M990.67 66 C988.94 82.82, 982.08 89.37, 968.67 88 M968.67 88 C622.61 87.47, 276.94 87.46, 22 88 M968.67 88 C728.12 90.14, 487.11 89.38, 22 88 M22 88 C6.72 87.19, 0.92 79.17, 0 66 M22 88 C8.38 89.92, -1.06 81.24, 0 66 M0 66 C-1.58 55.45, 0.3 47.02, 0 22 M0 66 C-0.83 50.13, -0.6 33.01, 0 22 M0 22 C1.14 7.64, 6.12 -1.7, 22 0 M0 22 C0.01 8.1, 8.76 0.31, 22 0" stroke="#1e1e1e" stroke-width="1" fill="none"></path></g><g stroke-opacity="0.8" fill-opacity="0.8" stroke-linecap="round" transform="translate(495.33340454101557 308.66668701171875) rotate(0 756.6666158040364 89.99997456868493)"><path d="M32 0 C494.97 -3.48, 957.15 -4.08, 1481.33 0 M32 0 C602.75 -5.52, 1172.85 -5.42, 1481.33 0 M1481.33 0 C1503.73 -1.87, 1514.03 9.51, 1513.33 32 M1481.33 0 C1502.28 -1.59, 1513.82 12.33, 1513.33 32 M1513.33 32 C1513.44 71.47, 1511.67 112.72, 1513.33 148 M1513.33 32 C1511.99 59.37, 1513.25 88.25, 1513.33 148 M1513.33 148 C1513.04 168.98, 1503.37 181.69, 1481.33 180 M1513.33 148 C1513.33 167.56, 1500.73 178.18, 1481.33 180 M1481.33 180 C1125.12 175.27, 769.45 174.72, 32 180 M1481.33 180 C1047.53 185.81, 614.69 185.64, 32 180 M32 180 C12.4 179.49, -1.2 170.08, 0 148 M32 180 C12.72 179.18, 0.02 167.93, 0 148 M0 148 C0.79 121.5, 0.76 98.72, 0 32 M0 148 C0.57 101.11, 0.71 55.88, 0 32 M0 32 C-0.39 8.82, 10.76 -1.61, 32 0 M0 32 C-2.04 11.77, 10.96 1.62, 32 0" stroke="#1e1e1e" stroke-width="1" fill="none"></path></g><g stroke-linecap="round"><g stroke-opacity="0.8" fill-opacity="0.8" transform="translate(838.0000305175779 496.6666666666663) rotate(0 -3.3333333333332575 104.66667175292969)"><path d="M1.07 0.96 C0.11 35.73, -5.32 174.75, -6.74 209.61 M0.18 0.42 C-0.86 35.32, -6.87 173, -7.73 207.64" stroke="#1e1e1e" stroke-width="1" fill="none"></path></g><g stroke-opacity="0.8" fill-opacity="0.8" transform="translate(838.0000305175779 496.6666666666663) rotate(0 -3.3333333333332575 104.66667175292969)"><path d="M-15.44 183.86 C-11.95 188.86, -11.4 192.85, -7.73 207.64 M-15.44 183.86 C-11.85 192.68, -10.49 201.27, -7.73 207.64" stroke="#1e1e1e" stroke-width="1" fill="none"></path></g><g stroke-opacity="0.8" fill-opacity="0.8" transform="translate(838.0000305175779 496.6666666666663) rotate(0 -3.3333333333332575 104.66667175292969)"><path d="M1.65 184.46 C1.4 189.49, -1.78 193.35, -7.73 207.64 M1.65 184.46 C-1.04 193.22, -5.95 201.59, -7.73 207.64" stroke="#1e1e1e" stroke-width="1" fill="none"></path></g></g><mask></mask><g stroke-opacity="0.8" fill-opacity="0.8" transform="translate(800.6666564941404 763.3333841959632) rotate(0 510.515869140625 90)"><text x="0" y="0" font-family="Virgil, Segoe UI Emoji" font-size="36px" fill="#1e1e1e" text-anchor="start" style="white-space: pre;" direction="ltr" dominant-baseline="text-before-edge">For a big language this parser is divided into two phases</text><text x="0" y="45" font-family="Virgil, Segoe UI Emoji" font-size="36px" fill="#1e1e1e" text-anchor="start" style="white-space: pre;" direction="ltr" dominant-baseline="text-before-edge"></text><text x="0" y="90" font-family="Virgil, Segoe UI Emoji" font-size="36px" fill="#1e1e1e" text-anchor="start" style="white-space: pre;" direction="ltr" dominant-baseline="text-before-edge"> </text><text x="0" y="135" font-family="Virgil, Segoe UI Emoji" font-size="36px" fill="#1e1e1e" text-anchor="start" style="white-space: pre;" direction="ltr" dominant-baseline="text-before-edge"> </text></g><g stroke-linecap="round"><g stroke-opacity="0.8" fill-opacity="0.8" transform="translate(1162.0000712076821 817.9999796549473) rotate(0 -277.3333740234375 96.00006103515625)"><path d="M-0.89 -0.8 C-93.64 31.53, -463.1 160.88, -555.56 193.1 M0.85 1.39 C-91.61 33.49, -460.97 160.04, -553.31 191.56" stroke="#1e1e1e" stroke-width="1" fill="none"></path></g><g stroke-opacity="0.8" fill-opacity="0.8" transform="translate(1162.0000712076821 817.9999796549473) rotate(0 -277.3333740234375 96.00006103515625)"><path d="M-533.85 175.87 C-542.65 180.17, -546.83 186, -553.31 191.56 M-533.85 175.87 C-540.95 180.82, -548 186.23, -553.31 191.56" stroke="#1e1e1e" stroke-width="1" fill="none"></path></g><g stroke-opacity="0.8" fill-opacity="0.8" transform="translate(1162.0000712076821 817.9999796549473) rotate(0 -277.3333740234375 96.00006103515625)"><path d="M-528.32 192.05 C-539.09 190.2, -545.36 189.91, -553.31 191.56 M-528.32 192.05 C-537.29 191.37, -546.26 191.16, -553.31 191.56" stroke="#1e1e1e" stroke-width="1" fill="none"></path></g></g><mask></mask><g stroke-opacity="0.8" fill-opacity="0.8" stroke-linecap="round" transform="translate(746.0000101725259 736.6666666666661) rotate(0 562.000020345052 41.99999491373694)"><path d="M21 0 C333.15 3.15, 646.25 3.83, 1103 0 M21 0 C331.42 -1.64, 641.74 -1.83, 1103 0 M1103 0 C1115.01 -1.39, 1123.42 7.56, 1124 21 M1103 0 C1118.42 -1.74, 1123.41 9.29, 1124 21 M1124 21 C1126.06 29.28, 1123.7 43.32, 1124 63 M1124 21 C1122.72 32.99, 1122.91 45.33, 1124 63 M1124 63 C1123.65 76.42, 1117.91 83.84, 1103 84 M1124 63 C1123.39 77.4, 1116.23 84.4, 1103 84 M1103 84 C880.23 84.27, 658.64 83.21, 21 84 M1103 84 C683.35 81.91, 264.43 82.38, 21 84 M21 84 C8.43 84.87, 1.47 77.88, 0 63 M21 84 C8.08 84.5, 0.16 78.67, 0 63 M0 63 C-0.36 52.55, 1.55 38.13, 0 21 M0 63 C-0.33 48.43, 0.12 34.55, 0 21 M0 21 C-0.68 8.14, 8.89 -1.45, 21 0 M0 21 C0.82 6.87, 5.46 0.3, 21 0" stroke="#1e1e1e" stroke-width="1" fill="none"></path></g><g stroke-opacity="0.8" fill-opacity="0.8" stroke-linecap="round" transform="translate(255.33335367838532 1047.3333231608067) rotate(0 462.66665140787734 123.33333333333326)"><path d="M32 0 C263.53 1.83, 495.35 1.77, 893.33 0 M32 0 C321.49 2.75, 609.95 2.7, 893.33 0 M893.33 0 C915.27 1.83, 925.15 10.21, 925.33 32 M893.33 0 C916.16 -1.83, 925.7 12.27, 925.33 32 M925.33 32 C924.66 98.05, 926.38 160.83, 925.33 214.67 M925.33 32 C924.19 82.44, 925.11 133.71, 925.33 214.67 M925.33 214.67 C923.66 235.14, 914.34 246.85, 893.33 246.67 M925.33 214.67 C924.18 237.38, 915.82 247.25, 893.33 246.67 M893.33 246.67 C709.24 243.28, 524.64 243.28, 32 246.67 M893.33 246.67 C570.77 246.51, 249.01 246.64, 32 246.67 M32 246.67 C8.73 247.64, 0.65 236.12, 0 214.67 M32 246.67 C10.67 247.34, 0.61 234.58, 0 214.67 M0 214.67 C0.83 165.42, 0.4 113.81, 0 32 M0 214.67 C0.29 153.87, -0.77 91.34, 0 32 M0 32 C-0.42 11.65, 11.97 -1.24, 32 0 M0 32 C1.21 12.18, 9.84 -0.24, 32 0" stroke="#1e1e1e" stroke-width="1" fill="none"></path></g><g stroke-opacity="0.8" fill-opacity="0.8" transform="translate(307.33327229817695 1090.0000508626295) rotate(0 422.0278625488281 90)"><text x="0" y="0" font-family="Virgil, Segoe UI Emoji" font-size="36px" fill="#1e1e1e" text-anchor="start" style="white-space: pre;" direction="ltr" dominant-baseline="text-before-edge">First Phase is where the text of</text><text x="0" y="45" font-family="Virgil, Segoe UI Emoji" font-size="36px" fill="#1e1e1e" text-anchor="start" style="white-space: pre;" direction="ltr" dominant-baseline="text-before-edge">the text file is split into a stream</text><text x="0" y="90" font-family="Virgil, Segoe UI Emoji" font-size="36px" fill="#1e1e1e" text-anchor="start" style="white-space: pre;" direction="ltr" dominant-baseline="text-before-edge">of tokens and then the parser assembles</text><text x="0" y="135" font-family="Virgil, Segoe UI Emoji" font-size="36px" fill="#1e1e1e" text-anchor="start" style="white-space: pre;" direction="ltr" dominant-baseline="text-before-edge">these tokens into a structure( like a grammar)</text></g><g stroke-linecap="round"><g stroke-opacity="0.8" fill-opacity="0.8" transform="translate(327.1199130837585 1037.999979654947) rotate(0 -8.632319806173541 -96.47073163381572)"><path d="M-0.71 -0.81 C-3.85 -32.69, -15.41 -160.17, -18.23 -192.38 M1.12 1.38 C-1.71 -30.76, -12.75 -161.75, -16.02 -194.21" stroke="#1e1e1e" stroke-width="1" fill="none"></path></g><g stroke-opacity="0.8" fill-opacity="0.8" transform="translate(327.1199130837585 1037.999979654947) rotate(0 -8.632319806173541 -96.47073163381572)"><path d="M-5.37 -171.6 C-10.28 -181.25, -11.75 -188.17, -16.02 -194.21 M-5.37 -171.6 C-6.96 -175.59, -10.37 -180.88, -16.02 -194.21" stroke="#1e1e1e" stroke-width="1" fill="none"></path></g><g stroke-opacity="0.8" fill-opacity="0.8" transform="translate(327.1199130837585 1037.999979654947) rotate(0 -8.632319806173541 -96.47073163381572)"><path d="M-22.4 -170.04 C-21.28 -180.15, -16.74 -187.61, -16.02 -194.21 M-22.4 -170.04 C-20.56 -174.47, -20.53 -180.07, -16.02 -194.21" stroke="#1e1e1e" stroke-width="1" fill="none"></path></g></g><mask></mask><g stroke-linecap="round"><g stroke-opacity="0.8" fill-opacity="0.8" transform="translate(54.00004069010413 672.6666768391922) rotate(0 -1.3333384195963447 -1.999994913737055)"><path d="M0.23 -0.1 C-0.21 -0.77, -2.46 -3.36, -2.9 -3.95 M-0.08 -0.46 C-0.39 -1.08, -1.82 -2.86, -2.23 -3.47" stroke="#1e1e1e" stroke-width="1" fill="none"></path></g></g><mask></mask><g stroke-opacity="0.8" fill-opacity="0.8" stroke-linecap="round" transform="translate(10 508.66671244303325) rotate(0 296.6666920979818 171.3333002726239)"><path d="M371.25 43 C403.42 60.28, 430.81 76.29, 519.08 129 M371.25 43 C427.04 74.11, 481.7 106.56, 519.08 129 M519.08 129 C593.16 173.68, 593.52 171.79, 519.08 215 M519.08 129 C591.96 173.35, 595.1 171.82, 519.08 215 M519.08 215 C464 248.95, 408.66 278.05, 371.25 299.67 M519.08 215 C464.83 247.5, 411.41 278.49, 371.25 299.67 M371.25 299.67 C295.95 343.62, 296.5 343.16, 222.75 299.67 M371.25 299.67 C296.21 344.26, 298.24 343.32, 222.75 299.67 M222.75 299.67 C180.45 273.95, 138.08 250.86, 74.25 215 M222.75 299.67 C184.39 276.43, 146.11 254.31, 74.25 215 M74.25 215 C-0.21 171.14, 0.66 172.71, 74.25 129 M74.25 215 C0.76 173.66, -0.43 174.18, 74.25 129 M74.25 129 C123.78 99.5, 170.09 73.95, 222.75 43 M74.25 129 C121.78 102.45, 169.24 75.24, 222.75 43 M222.75 43 C297.88 1.41, 297.91 -1.55, 371.25 43 M222.75 43 C297.26 2.01, 294.86 -2.1, 371.25 43" stroke="#1e1e1e" stroke-width="1" fill="none"></path></g><g stroke-opacity="0.8" fill-opacity="0.8" transform="translate(184.6666971842448 618.0000050862625) rotate(0 128.77195739746094 67.5)"><text x="0" y="0" font-family="Virgil, Segoe UI Emoji" font-size="36px" fill="#1e1e1e" text-anchor="start" style="white-space: pre;" direction="ltr" dominant-baseline="text-before-edge">tokens are</text><text x="0" y="45" font-family="Virgil, Segoe UI Emoji" font-size="36px" fill="#1e1e1e" text-anchor="start" style="white-space: pre;" direction="ltr" dominant-baseline="text-before-edge">like keywords</text><text x="0" y="90" font-family="Virgil, Segoe UI Emoji" font-size="36px" fill="#1e1e1e" text-anchor="start" style="white-space: pre;" direction="ltr" dominant-baseline="text-before-edge">operators, etc</text></g><g stroke-linecap="round"><g stroke-opacity="0.8" fill-opacity="0.8" transform="translate(1195.3333028157554 1113.9999898274734) rotate(0 133.33333333333326 -10.666605631510379)"><path d="M-0.37 -0.23 C44.25 -3.69, 223.03 -17.47, 267.36 -20.94 M1.64 -1.4 C46.19 -5.21, 222.39 -19.83, 266.78 -22.85" stroke="#1e1e1e" stroke-width="1" fill="none"></path></g><g stroke-opacity="0.8" fill-opacity="0.8" transform="translate(1195.3333028157554 1113.9999898274734) rotate(0 133.33333333333326 -10.666605631510379)"><path d="M244.01 -12.53 C249.81 -14.1, 257.01 -19.77, 266.78 -22.85 M244.01 -12.53 C251.88 -16.88, 257.88 -18.92, 266.78 -22.85" stroke="#1e1e1e" stroke-width="1" fill="none"></path></g><g stroke-opacity="0.8" fill-opacity="0.8" transform="translate(1195.3333028157554 1113.9999898274734) rotate(0 133.33333333333326 -10.666605631510379)"><path d="M242.7 -29.58 C248.82 -26.53, 256.39 -27.59, 266.78 -22.85 M242.7 -29.58 C251.02 -28.38, 257.44 -24.85, 266.78 -22.85" stroke="#1e1e1e" stroke-width="1" fill="none"></path></g></g><mask></mask><g stroke-opacity="0.8" fill-opacity="0.8" stroke-linecap="round" transform="translate(1510.0000508626301 978.0000305175777) rotate(0 264.66664632161473 146.66669209798175)"><path d="M171.22 10.55 C189.85 4.27, 215.02 2.57, 237.7 1.24 C260.38 -0.09, 284.61 0.63, 307.31 2.57 C330.01 4.52, 353.04 7.73, 373.91 12.91 C394.77 18.09, 414.98 25.74, 432.49 33.67 C449.99 41.59, 465.57 50.19, 478.93 60.45 C492.29 70.71, 504.44 83.38, 512.66 95.24 C520.88 107.1, 526.03 118.99, 528.26 131.61 C530.49 144.24, 529.84 158.6, 526.05 170.99 C522.27 183.37, 514.92 194.36, 505.57 205.92 C496.22 217.47, 484.34 230.51, 469.95 240.32 C455.56 250.13, 437.79 257.71, 419.25 264.78 C400.71 271.86, 379.93 278.26, 358.69 282.77 C337.45 287.29, 314.49 290.35, 291.81 291.89 C269.14 293.43, 245.15 293.91, 222.63 292 C200.11 290.09, 177.6 285.76, 156.69 280.42 C135.78 275.07, 114.96 268.02, 97.18 259.95 C79.41 251.87, 63.22 242.22, 50.03 231.97 C36.84 221.71, 26.03 210.28, 18.02 198.4 C10.02 186.52, 4.49 173.14, 2 160.7 C-0.48 148.26, -0.58 136.07, 3.11 123.77 C6.8 111.47, 14.68 98.58, 24.15 86.9 C33.62 75.22, 45.82 63.67, 59.95 53.66 C74.08 43.66, 89.57 34.21, 108.92 26.86 C128.26 19.51, 163.9 12.29, 176.01 9.54 C188.12 6.79, 180.14 8.28, 181.58 10.34 M198.37 4.9 C218.75 -0.23, 246.61 -0.68, 269.9 -0.52 C293.18 -0.37, 316.21 2.51, 338.09 5.83 C359.98 9.16, 381.66 13.12, 401.2 19.43 C420.73 25.74, 439.44 34.32, 455.28 43.68 C471.11 53.05, 485.42 64.38, 496.21 75.62 C507 86.87, 514.26 98.96, 520.02 111.15 C525.78 123.34, 530.8 136.31, 530.76 148.75 C530.71 161.19, 526.32 173.53, 519.72 185.8 C513.13 198.06, 502.73 211.4, 491.18 222.32 C479.62 233.24, 466.72 242.61, 450.4 251.3 C434.08 259.99, 413.3 268.09, 393.24 274.44 C373.18 280.79, 352.24 286.22, 330.02 289.41 C307.81 292.59, 282.97 293.61, 259.96 293.56 C236.96 293.51, 213.97 292.74, 191.99 289.11 C170 285.48, 147.56 278.65, 128.06 271.76 C108.57 264.88, 90.71 256.49, 75.02 247.8 C59.33 239.11, 44.93 230.63, 33.9 219.61 C22.87 208.59, 14.57 194.11, 8.85 181.7 C3.12 169.29, -0.69 157.68, -0.45 145.15 C-0.22 132.63, 4.11 118.68, 10.25 106.57 C16.39 94.47, 24.81 83.54, 36.39 72.52 C47.98 61.5, 63.28 49.68, 79.76 40.45 C96.24 31.22, 115.18 22.93, 135.27 17.13 C155.36 11.34, 189.47 7.32, 200.31 5.68 C211.15 4.03, 199.14 5.23, 200.3 7.26" stroke="#1e1e1e" stroke-width="1" fill="none"></path></g><g stroke-opacity="0.8" fill-opacity="0.8" transform="translate(1607.3332214355469 1068.6666870117183) rotate(0 187.45193481445312 45)"><text x="0" y="0" font-family="Virgil, Segoe UI Emoji" font-size="36px" fill="#1e1e1e" text-anchor="start" style="white-space: pre;" direction="ltr" dominant-baseline="text-before-edge">Sometimes this phase</text><text x="0" y="45" font-family="Virgil, Segoe UI Emoji" font-size="36px" fill="#1e1e1e" text-anchor="start" style="white-space: pre;" direction="ltr" dominant-baseline="text-before-edge">is not necessary</text></g><g stroke-linecap="round"><g stroke-opacity="0.8" fill-opacity="0.8" transform="translate(715.3925195207614 1303.3333333333326) rotate(0 5.864077902099893 135.33332824707026)"><path d="M1.16 -1.07 C2.9 44.19, 8.95 225.18, 10.65 270.45 M0.31 0.98 C2.39 46.53, 11.11 226.74, 12.8 271.88" stroke="#1e1e1e" stroke-width="1" fill="none"></path></g><g stroke-opacity="0.8" fill-opacity="0.8" transform="translate(715.3925195207614 1303.3333333333326) rotate(0 5.864077902099893 135.33332824707026)"><path d="M3.23 248.78 C4.25 254.22, 8.72 262.76, 12.8 271.88 M3.23 248.78 C5.78 255.46, 9.48 262.79, 12.8 271.88" stroke="#1e1e1e" stroke-width="1" fill="none"></path></g><g stroke-opacity="0.8" fill-opacity="0.8" transform="translate(715.3925195207614 1303.3333333333326) rotate(0 5.864077902099893 135.33332824707026)"><path d="M20.32 248.03 C15.92 253.87, 14.97 262.65, 12.8 271.88 M20.32 248.03 C17.9 254.96, 16.64 262.5, 12.8 271.88" stroke="#1e1e1e" stroke-width="1" fill="none"></path></g></g><mask></mask><g stroke-opacity="0.8" fill-opacity="0.8" stroke-linecap="round" transform="translate(160.66660563151066 1584.6666463216136) rotate(0 582.6667022705076 131.999994913737)"><path d="M32 0 C310.85 -1.24, 589.76 -0.12, 1133.33 0 M32 0 C386.13 -1.44, 740.55 -1.03, 1133.33 0 M1133.33 0 C1155.84 -0.5, 1165.95 9.76, 1165.33 32 M1133.33 0 C1156.56 -1.03, 1167.09 12.01, 1165.33 32 M1165.33 32 C1165.94 83.81, 1164.91 134.58, 1165.33 232 M1165.33 32 C1166.33 107.94, 1167.42 184.34, 1165.33 232 M1165.33 232 C1163.41 252.47, 1155.39 264.01, 1133.33 264 M1165.33 232 C1164.96 253.35, 1156.8 263.86, 1133.33 264 M1133.33 264 C867.62 268.28, 601.86 268.13, 32 264 M1133.33 264 C783.84 265.71, 434.5 265.76, 32 264 M32 264 C9.34 265.13, -1.69 252.36, 0 232 M32 264 C9.25 262.31, -1.22 251.25, 0 232 M0 232 C-1.23 180.35, 0.53 127.29, 0 32 M0 232 C-2.22 179.24, -2.4 127.92, 0 32 M0 32 C-0.71 9.11, 9.38 0.6, 32 0 M0 32 C0.83 8.6, 11.23 0.35, 32 0" stroke="#1e1e1e" stroke-width="1" fill="none"></path></g><g stroke-opacity="0.8" fill-opacity="0.8" transform="translate(200.94504681734008 1645.3120570175552) rotate(359.3392093728893 533.8798217773438 67.5)"><text x="0" y="0" font-family="Virgil, Segoe UI Emoji" font-size="36px" fill="#1e1e1e" text-anchor="start" style="white-space: pre;" direction="ltr" dominant-baseline="text-before-edge">The parsed structure is often called a “syntax tree”. </text><text x="0" y="45" font-family="Virgil, Segoe UI Emoji" font-size="36px" fill="#1e1e1e" text-anchor="start" style="white-space: pre;" direction="ltr" dominant-baseline="text-before-edge">One can simply simulate the program from the syntax tree. </text><text x="0" y="90" font-family="Virgil, Segoe UI Emoji" font-size="36px" fill="#1e1e1e" text-anchor="start" style="white-space: pre;" direction="ltr" dominant-baseline="text-before-edge">This is called an “interpreter”, and it’s a naive interpreter</text></g><g stroke-linecap="round"><g stroke-opacity="0.8" fill-opacity="0.8" transform="translate(784.3433157901147 1862.000020345051) rotate(0 -8.88963665717813 113.33333333333331)"><path d="M-0.04 0.91 C-3.13 38.68, -14.43 188.77, -17.41 226.46 M-1.52 0.35 C-4.84 38.31, -15.29 190.45, -18.17 227.9" stroke="#1e1e1e" stroke-width="1" fill="none"></path></g><g stroke-opacity="0.8" fill-opacity="0.8" transform="translate(784.3433157901147 1862.000020345051) rotate(0 -8.88963665717813 113.33333333333331)"><path d="M-25 203.85 C-20.79 214, -19.94 222.66, -18.17 227.9 M-25 203.85 C-23.8 211.76, -19.9 220.45, -18.17 227.9" stroke="#1e1e1e" stroke-width="1" fill="none"></path></g><g stroke-opacity="0.8" fill-opacity="0.8" transform="translate(784.3433157901147 1862.000020345051) rotate(0 -8.88963665717813 113.33333333333331)"><path d="M-7.94 205.08 C-10.5 214.74, -16.42 222.9, -18.17 227.9 M-7.94 205.08 C-12.48 212.51, -14.33 220.79, -18.17 227.9" stroke="#1e1e1e" stroke-width="1" fill="none"></path></g></g><mask></mask><g stroke-opacity="0.8" fill-opacity="0.8" stroke-linecap="round" transform="translate(223.33318074544303 2096.6666158040352) rotate(0 506.66671752929693 132.00004577636713)"><path d="M32 0 C334.13 2.74, 636.32 1.7, 981.33 0 M32 0 C331.22 1.08, 629.61 0.61, 981.33 0 M981.33 0 C1001.77 0.34, 1015.32 9.48, 1013.33 32 M981.33 0 C1001.83 0.24, 1013.14 9.57, 1013.33 32 M1013.33 32 C1012.2 98.27, 1013.97 161.08, 1013.33 232 M1013.33 32 C1013.96 101.53, 1013.62 170.72, 1013.33 232 M1013.33 232 C1013.79 252.35, 1001.65 264.17, 981.33 264 M1013.33 232 C1013.55 253.28, 1004.05 262.13, 981.33 264 M981.33 264 C733.28 266.47, 486.39 267.05, 32 264 M981.33 264 C754.56 260.29, 527.47 260.16, 32 264 M32 264 C9.74 263.89, 0.33 253.57, 0 232 M32 264 C11.49 264.8, 0.35 252.22, 0 232 M0 232 C2.14 160.96, 3.1 86.71, 0 32 M0 232 C0.3 172.03, 0.91 111.02, 0 32 M0 32 C1.54 10.78, 10.92 -1.47, 32 0 M0 32 C-1.98 12.62, 9.87 -0.6, 32 0" stroke="#1e1e1e" stroke-width="1" fill="none"></path></g><g stroke-opacity="0.8" fill-opacity="0.8" transform="translate(272.6667785644527 2115.3331502278634) rotate(0 455.43585205078125 112.5)"><text x="0" y="0" font-family="Virgil, Segoe UI Emoji" font-size="36px" fill="#1e1e1e" text-anchor="start" style="white-space: pre;" direction="ltr" dominant-baseline="text-before-edge">A less naive interpreter includes extra steps. </text><text x="0" y="45" font-family="Virgil, Segoe UI Emoji" font-size="36px" fill="#1e1e1e" text-anchor="start" style="white-space: pre;" direction="ltr" dominant-baseline="text-before-edge">Such as converting the syntax tree into a list</text><text x="0" y="90" font-family="Virgil, Segoe UI Emoji" font-size="36px" fill="#1e1e1e" text-anchor="start" style="white-space: pre;" direction="ltr" dominant-baseline="text-before-edge">of instructions called “bytecode”. </text><text x="0" y="135" font-family="Virgil, Segoe UI Emoji" font-size="36px" fill="#1e1e1e" text-anchor="start" style="white-space: pre;" direction="ltr" dominant-baseline="text-before-edge">The execution of a program works on the bytecode</text><text x="0" y="180" font-family="Virgil, Segoe UI Emoji" font-size="36px" fill="#1e1e1e" text-anchor="start" style="white-space: pre;" direction="ltr" dominant-baseline="text-before-edge">instead of the syntax tree</text></g><g stroke-linecap="round"><g stroke-opacity="0.8" fill-opacity="0.8" transform="translate(710.9494145353999 2366.000010172525) rotate(0 -0.29719154426743444 146.66669209798172)"><path d="M0.41 -0.3 C0.3 48.54, -1.14 244.12, -1.39 292.97 M-0.83 -1.51 C-0.5 47.51, 1.12 245.09, 0.91 294.32" stroke="#1e1e1e" stroke-width="1" fill="none"></path></g><g stroke-opacity="0.8" fill-opacity="0.8" transform="translate(710.9494145353999 2366.000010172525) rotate(0 -0.29719154426743444 146.66669209798172)"><path d="M-7.71 270.86 C-6.15 275.17, -4.16 281.35, 0.91 294.32 M-7.71 270.86 C-4.93 277.69, -3.08 282.15, 0.91 294.32" stroke="#1e1e1e" stroke-width="1" fill="none"></path></g><g stroke-opacity="0.8" fill-opacity="0.8" transform="translate(710.9494145353999 2366.000010172525) rotate(0 -0.29719154426743444 146.66669209798172)"><path d="M9.39 270.81 C6.82 275.19, 4.68 281.39, 0.91 294.32 M9.39 270.81 C7.72 277.6, 5.12 282.07, 0.91 294.32" stroke="#1e1e1e" stroke-width="1" fill="none"></path></g></g><mask></mask><g stroke-opacity="0.8" fill-opacity="0.8" stroke-linecap="round" transform="translate(113.9998881022139 2666.000010172525) rotate(0 814.6666463216146 128.66666158040368)"><path d="M32 0 C357.65 5.63, 684.31 4.46, 1597.33 0 M32 0 C410.25 4.83, 788.57 4.26, 1597.33 0 M1597.33 0 C1618.24 -0.44, 1628.47 12.04, 1629.33 32 M1597.33 0 C1618.92 1.59, 1628.65 10.22, 1629.33 32 M1629.33 32 C1631.65 72.7, 1629.76 114.36, 1629.33 225.33 M1629.33 32 C1630.1 97.04, 1629.6 163.69, 1629.33 225.33 M1629.33 225.33 C1628.98 245.4, 1619.51 256.97, 1597.33 257.33 M1629.33 225.33 C1630.67 248.46, 1617.67 256.51, 1597.33 257.33 M1597.33 257.33 C1096.04 262.68, 593.96 263.91, 32 257.33 M1597.33 257.33 C1215.35 255.5, 832.97 255.61, 32 257.33 M32 257.33 C8.73 256.35, 1.35 246.34, 0 225.33 M32 257.33 C8.47 255.4, 1.65 245.36, 0 225.33 M0 225.33 C0.7 171.48, 2.16 113.87, 0 32 M0 225.33 C1.76 175.55, 0.18 124.6, 0 32 M0 32 C1.3 11.53, 9.61 -0.95, 32 0 M0 32 C-1.54 12.77, 9.44 -1.7, 32 0" stroke="#1e1e1e" stroke-width="1" fill="none"></path></g><g stroke-opacity="0.8" fill-opacity="0.8" transform="translate(128.66653442382852 2708.6666870117174) rotate(0 805.0137329101562 90)"><text x="0" y="0" font-family="Virgil, Segoe UI Emoji" font-size="36px" fill="#1e1e1e" text-anchor="start" style="white-space: pre;" direction="ltr" dominant-baseline="text-before-edge">The component for producing the bytecode is also called a “compiler”, and the line</text><text x="0" y="45" font-family="Virgil, Segoe UI Emoji" font-size="36px" fill="#1e1e1e" text-anchor="start" style="white-space: pre;" direction="ltr" dominant-baseline="text-before-edge">between compiler and interpreter blurs from here. A compiler such as GCC ultimately</text><text x="0" y="90" font-family="Virgil, Segoe UI Emoji" font-size="36px" fill="#1e1e1e" text-anchor="start" style="white-space: pre;" direction="ltr" dominant-baseline="text-before-edge">outputs a binary executable — a container for machine code — which also contains a list</text><text x="0" y="135" font-family="Virgil, Segoe UI Emoji" font-size="36px" fill="#1e1e1e" text-anchor="start" style="white-space: pre;" direction="ltr" dominant-baseline="text-before-edge">of instructions, the real instructions that the CPU executes.</text></g></svg>